<svg width="160" height="180" viewBox="0 0 160 180" fill="none" xmlns="http://www.w3.org/2000/svg">
<g clip-path="url(#clip0_1_2)">
<mask id="mask0_1_2" style="mask-type:luminance" maskUnits="userSpaceOnUse" x="0" y="0" width="160" height="180">
<path d="M160 0H0V180H160V0Z" fill="white"/>
</mask>
<g mask="url(#mask0_1_2)">
<path d="M85.501 172.25L72.0448 170.625L71.8755 147.406L85.3403 149.033L85.501 172.25Z" fill="#D82505"/>
<path d="M85.3393 149.033L71.8745 147.406L89.1759 145.456L102.629 147.089L85.3393 149.033Z" fill="#D82505"/>
<path d="M102.629 147.088L102.801 170.299L85.4994 172.249L85.3388 149.032L102.629 147.088Z" fill="#D82505" fill-opacity="0.8"/>
<path d="M92.8595 93.4113C90.44 97.5563 88.5651 101.996 87.2812 106.62C85.6651 112.905 84.9037 119.38 85.0176 125.869C84.9603 128.583 85.0225 131.517 85.2133 134.729L71.7599 133.096C70.8983 117.691 72.0534 102.243 81.1395 88.9859C86.8464 79.5952 95.9339 71.6432 98.8941 60.79C101.075 52.1819 97.8784 40.7619 90.3837 35.7694C88.5249 34.5142 86.4018 33.7045 84.1792 33.4031L97.1606 34.9698L97.6898 35.0356C99.7941 35.3688 101.812 36.1146 103.627 37.2304L103.713 37.258C105.109 38.2152 106.366 39.3605 107.448 40.6615C111.173 45.0679 113.157 50.6851 113.025 56.4535C113.076 59.6976 112.485 62.9197 111.284 65.934C110.034 69.0527 107.156 73.574 102.745 79.3199C99.1792 83.821 95.8783 88.5262 92.8595 93.4113Z" fill="#D82505"/>
<path d="M102.415 14.2443C99.4525 13.8845 96.4575 13.8765 93.4928 14.2207C88.399 14.7175 83.4662 16.2782 79.0137 18.8019C74.5612 21.3255 70.6882 24.7559 67.6452 28.871C61.123 37.3446 57.2518 49.053 56.0358 63.5992L55.7958 66.5872L42.3564 64.9397C44.4019 27.8748 63.6954 5.57378 102.415 14.2443Z" fill="#D82505"/>
<path d="M93.4783 14.2641C104.73 13.0061 113.9 16.1841 120.742 23.7376C127.583 31.2911 131.171 41.2614 131.253 53.1884C131.353 59.8984 130.174 66.566 127.779 72.835C125.426 78.8822 121.016 86.0994 114.283 94.9324C110.064 100.465 107.301 104.511 106.07 106.952C104.843 109.437 103.969 112.082 103.475 114.81C102.896 117.85 102.577 122.91 102.527 129.879L102.535 132.805L85.2165 134.72L85.1263 131.844C85.0612 129.451 85.019 127.606 84.9972 126.346C84.8508 119.696 85.6136 113.058 87.2644 106.615C88.5483 101.99 90.4231 97.5508 92.8427 93.4059C95.8466 88.5338 99.1364 83.8438 102.695 79.3606C107.108 73.5775 109.986 69.0562 111.239 65.9289C112.434 62.913 113.025 59.692 112.98 56.4484C113.106 50.6785 111.12 45.0611 107.394 40.6536C103.663 36.2645 99.2265 34.4197 93.8389 35.0304C88.6311 35.6136 84.4327 38.1918 81.0167 42.9102C77.6006 47.6286 75.3201 54.9235 74.2729 64.5796L73.9601 67.4398L55.7779 66.582L56.0266 63.5967C57.2339 49.0478 61.1454 37.3618 67.6445 28.8713C70.6881 24.7637 74.5603 21.3411 79.0105 18.8248C83.4607 16.3086 88.3896 14.7548 93.4783 14.2641Z" fill="#D82505" fill-opacity="0.8"/>
</g>
</g>
<defs>
<clipPath id="clip0_1_2">
<rect width="160" height="180" fill="white"/>
</clipPath>
</defs>
</svg>
